<?xml version="1.0" standalone="no"?>
<!DOCTYPE svg PUBLIC "-//W3C//DTD SVG 20010904//EN"
 "http://www.w3.org/TR/2001/REC-SVG-20010904/DTD/svg10.dtd">
<svg version="1.0" xmlns="http://www.w3.org/2000/svg"
 width="630.000000pt" height="110.000000pt" viewBox="0 0 630.000000 110.000000"
 preserveAspectRatio="xMidYMid meet">

<g transform="translate(0.000000,110.000000) scale(0.100000,-0.100000)"
fill="#000000" stroke="none">
<path d="M3990 1015 c-72 -21 -110 -44 -137 -85 -40 -59 -44 -97 -41 -403 3
-290 3 -292 28 -337 52 -93 191 -136 365 -112 129 17 195 61 227 149 19 55 19
592 -1 646 -19 56 -63 101 -123 127 -70 30 -236 38 -318 15z m194 -245 l26
-10 0 -209 c0 -198 -1 -211 -19 -221 -29 -15 -104 -12 -129 6 -21 15 -22 20
-22 210 0 181 1 195 20 214 22 22 81 27 124 10z"/>
<path d="M97 1003 c-13 -12 -8 -221 6 -230 6 -4 82 -10 167 -13 154 -5 155 -5
158 -29 2 -13 0 -27 -5 -32 -5 -5 -60 -18 -123 -29 -63 -12 -119 -25 -125 -31
-13 -13 11 -219 28 -236 18 -19 332 36 381 66 61 38 76 86 76 247 0 130 -2
144 -26 191 -20 42 -35 57 -77 77 -50 25 -56 26 -252 26 -111 0 -205 -3 -208
-7z"/>
<path d="M792 998 c-19 -19 -17 -881 2 -897 9 -8 48 -11 112 -9 l99 3 3 148 3
147 73 0 c111 0 106 7 106 -130 0 -65 4 -130 10 -144 9 -26 11 -26 109 -26 92
0 101 2 112 21 8 15 10 76 7 193 -4 153 -6 176 -26 214 -14 27 -35 49 -57 59
l-33 16 21 29 c17 23 22 46 25 121 2 53 -1 111 -8 136 -15 55 -63 105 -115
120 -57 15 -427 15 -443 -1z m326 -230 c16 -16 16 -120 0 -136 -7 -7 -34 -12
-60 -12 l-48 0 0 80 0 80 48 0 c26 0 53 -5 60 -12z"/>
<path d="M1666 988 c-8 -13 -40 -108 -72 -213 l-59 -190 0 -245 0 -245 94 -3
c60 -2 98 1 107 9 10 8 14 38 14 110 l0 99 90 0 90 0 0 -99 c0 -72 4 -102 14
-110 9 -8 48 -11 112 -9 l99 3 3 205 c2 125 -1 228 -8 265 -15 76 -119 416
-132 433 -8 9 -55 12 -174 12 -159 0 -164 -1 -178 -22z m223 -315 c12 -49 24
-96 27 -105 5 -16 -3 -18 -76 -18 -73 0 -81 2 -76 18 3 9 15 56 27 105 20 83
23 87 49 87 26 0 29 -4 49 -87z"/>
<path d="M2295 998 c-3 -7 -4 -213 -3 -458 l3 -445 99 -3 c62 -2 103 1 110 8
7 7 13 91 16 227 l5 216 83 -124 82 -125 0 -90 c0 -57 4 -94 12 -102 8 -8 46
-12 105 -12 81 0 94 2 103 19 6 13 10 170 10 441 0 271 -4 428 -10 441 -9 17
-22 19 -104 19 -65 0 -97 -4 -104 -13 -7 -8 -13 -72 -14 -156 l-3 -143 -89
129 c-131 189 -124 183 -218 183 -54 0 -80 -4 -83 -12z"/>
<path d="M3065 998 c-3 -7 -4 -213 -3 -458 l3 -445 235 0 c232 0 236 0 280 25
50 28 85 74 101 133 6 25 9 142 7 321 -3 265 -4 283 -24 321 -25 46 -45 65
-94 91 -31 17 -64 19 -268 22 -186 3 -233 1 -237 -10z m379 -244 c13 -13 16
-46 16 -204 0 -225 2 -220 -101 -220 l-69 0 0 220 0 220 69 0 c50 0 74 -4 85
-16z"/>
<path d="M4583 998 c-11 -17 -16 -830 -5 -871 l8 -32 93 -3 c60 -2 98 1 107 9
11 9 14 57 15 243 l1 231 38 -81 c41 -87 58 -100 124 -87 24 5 34 18 67 87
l38 81 0 -231 c1 -186 4 -234 15 -243 9 -8 48 -11 112 -9 l99 3 0 455 0 455
-106 3 c-89 2 -108 0 -120 -14 -8 -9 -37 -69 -65 -133 -29 -66 -57 -116 -65
-116 -7 0 -34 46 -60 105 -80 176 -61 160 -183 160 -73 0 -107 -4 -113 -12z"/>
<path d="M5760 512 c-53 -26 -60 -49 -60 -207 0 -158 7 -181 60 -207 43 -22
128 -23 175 -4 55 23 65 55 65 213 0 90 -5 147 -13 163 -18 36 -73 60 -137 60
-32 0 -69 -7 -90 -18z m125 -207 l0 -100 -35 0 -35 0 -3 89 c-4 111 -1 118 40
114 l33 -3 0 -100z"/>
<path d="M5448 504 c-40 -21 -50 -69 -46 -221 3 -130 4 -133 31 -160 25 -26
34 -28 122 -31 l95 -4 0 56 c0 62 -1 63 -90 68 l-45 3 -3 89 c-2 65 1 92 10
98 7 4 39 8 71 8 l57 0 0 55 0 55 -87 0 c-58 -1 -97 -6 -115 -16z"/>
<path d="M174 337 c-2 -7 -3 -65 -2 -128 l3 -114 114 -3 c75 -2 118 1 127 9
18 15 20 219 2 237 -18 18 -237 17 -244 -1z"/>
<path d="M6061 246 c-7 -9 -11 -41 -9 -83 l3 -68 59 -3 c41 -2 62 1 67 10 13
20 11 132 -3 146 -17 17 -103 15 -117 -2z"/>
</g>
</svg>
